<svg width="1468" height="233" viewBox="0 0 1468 233" fill="none" xmlns="http://www.w3.org/2000/svg">
<g filter="url(#filter0_d)">
<path d="M1460.01 0.204102C1450.81 11.9643 1441.73 23.8327 1432.39 35.4197C1423.59 46.2486 1411.88 49.1291 1400.14 51.9879C1392.88 53.714 1385.73 56.0884 1378.76 59.0916C1374.94 60.6535 1371.47 63.2985 1368.66 66.8083C1365.84 70.318 1363.75 74.5918 1362.56 79.2767C1361.4 84.305 1359.82 89.1802 1357.86 93.8307C1355.98 98.1642 1353.39 101.988 1350.25 105.071C1348 107.03 1345.26 107.975 1342.49 107.746C1339.73 107.517 1337.12 106.127 1335.11 103.815C1333.27 101.699 1331.61 99.3628 1330.15 96.8412C1320.09 79.2984 1305.74 75.0101 1289.39 77.8473C1261.75 82.6337 1248.41 103.837 1243.06 138.208C1241.82 147.097 1241.34 156.119 1241.64 165.128C1241.76 171.626 1243.53 178.123 1244.42 184.62C1245.3 189.318 1245.76 194.118 1245.81 198.936C1245.72 203.961 1244.1 208.768 1241.27 212.428C1238.44 216.088 1234.59 218.341 1230.47 218.753C1222.36 219.489 1216.21 213.252 1213.72 202.271C1211.7 193.608 1212.93 185.118 1214.38 176.607C1216.48 164.349 1217.76 152.025 1215.34 139.615C1212.79 126.621 1205.18 118.412 1194.31 119.387C1182.39 120.448 1174.72 114.471 1169.67 102.061C1165.72 92.1847 1161.85 82.251 1158.07 72.2596C1156.37 67.5799 1154.05 63.2653 1151.21 59.4815C1147.88 55.1499 1144.09 52.1178 1136.84 53.8938C1134.23 54.5435 1131.69 55.6264 1129.1 56.3628C1122.99 58.1387 1118.89 61.9505 1117.31 69.9638C1116.62 72.9763 1115.49 75.8147 1113.98 78.3454C1112.2 81.6423 1109.5 84.0319 1106.37 85.0593C1105.04 85.5585 1103.63 85.6211 1102.27 85.2407C1100.92 84.8603 1099.67 84.0505 1098.65 82.8935C1095.3 78.8869 1094.98 73.8839 1092.35 69.1408C1084.27 54.6085 1073.98 51.4898 1061.34 60.1962C1055.66 64.1162 1050.15 68.3612 1044.43 72.1513C1037.43 76.786 1031.25 75.27 1025.41 68.5561C1013.34 54.6518 1008 54.132 993.744 65.1558C987.883 69.7256 982.27 74.7719 976.586 79.6449C968.533 86.5321 960.426 86.9652 951.446 81.8107C943.576 77.2299 935.382 73.5187 926.965 70.7219C921.927 69.2202 916.672 69.1461 911.606 70.5053C900.916 73.2775 896.426 83.5 894.323 95.4118C893.483 101.631 892.983 107.911 892.827 114.211C892.435 120.318 892.47 126.512 891.722 132.533C889.655 149.275 880.782 155.057 867.882 148.538C865.752 147.68 863.885 146.058 862.527 143.886C861.169 141.713 860.384 139.092 860.274 136.367C860.061 132.425 859.989 128.462 859.936 124.498C859.983 112.084 857.65 99.8274 853.122 88.6998C848.595 77.5723 841.997 67.8799 833.851 60.3911C823.054 50.017 810.083 51.4681 800.337 62.9684C795.776 68.3179 794.528 75.3133 793.566 82.4604C792.941 88.8937 791.958 95.2684 790.626 101.541C787.651 113.171 778.154 117.806 769.245 112.5C766.056 110.616 763.116 108.168 759.945 106.132C756.87 103.997 753.606 102.29 750.216 101.043C747.237 100.236 744.116 100.901 741.54 102.891C738.964 104.881 737.143 108.034 736.479 111.655C734.502 121.683 737.049 131.277 738.849 140.85C740.47 149.513 743 157.765 744.889 166.276C746.731 174.561 745.801 183.395 742.303 190.849C738.804 198.304 733.021 203.773 726.216 206.061C722.529 207.34 718.638 207.491 714.89 206.501C711.143 205.511 707.655 203.41 704.737 200.385C701.818 197.361 699.56 193.507 698.163 189.166C696.766 184.824 696.273 180.131 696.729 175.502C697.62 165.951 700.292 156.595 702.412 147.347C707.419 125.429 708.346 103.36 701.575 82.0272C696.23 64.9392 683.918 56.3844 669.967 51.7063C663.963 49.7138 658.671 52.3127 654.359 58.0737C646.858 68.0796 640.693 68.9026 631.196 61.7989C628.328 59.6331 625.62 57.1424 622.751 54.955C618.839 51.9671 614.224 50.632 609.624 51.1567C605.024 51.6814 600.695 54.0367 597.308 57.8571C594.225 61.3657 591.571 65.4374 588.755 69.3141C575.856 87.0952 557.7 92.7695 540.06 82.4387C528.943 76.0654 518.508 68.0649 508.987 58.6152C491.74 41.1157 473.477 44.8625 459.223 57.4456C453.824 62.233 448.682 67.4342 443.829 73.0176C429.04 89.9756 424.96 111.07 428.096 134.851C429.415 144.986 430.555 155.166 431.749 165.323C431.956 167.248 432.075 169.186 432.105 171.127C432.194 188.107 427.187 196.056 415.909 196.879C403.829 197.788 394.528 188.215 393.958 172.514C393.566 161.446 394.884 150.271 395.918 139.204C397.076 126.989 398.555 114.86 395.33 102.775C392.479 92.0765 387.312 83.8898 378.475 79.7965C370.867 76.2663 363.294 72.4978 355.49 69.7473C342.466 65.1775 330.314 70.1804 318.323 75.9631C308.541 80.6628 298.831 85.6008 288.889 89.7807C275.597 95.3901 263.944 92.358 255.303 77.9989C253.985 75.8331 252.47 73.8189 251.062 71.7398C239.766 55.1283 226.492 50.6884 209.78 57.8571C207.091 58.8897 204.485 60.2163 201.993 61.8205C192.336 68.686 182.27 68.751 171.918 65.0042C161.103 61.1058 150.537 60.6726 140.595 68.2529C137.408 70.9393 134.438 73.9849 131.722 77.3492C126.875 82.9369 124.078 91.2101 114.546 90.6687C112.068 90.4958 109.646 89.7093 107.428 88.3574C105.21 87.0054 103.242 85.1166 101.646 82.8069C100.681 81.5163 99.8823 80.0559 99.2762 78.4754C94.3052 64.3545 84.7016 57.0341 73.5301 52.0095C63.9444 47.678 54.323 43.4764 44.666 39.4047C36.7633 36.1389 29.729 30.3489 24.3007 22.6416C18.7773 14.9097 12.7906 7.67604 7 0.204102H1460.01Z" fill="#FBE0E8"/>
</g>
<defs>
<filter id="filter0_d" x="0" y="0.204102" width="1467.01" height="232.607" filterUnits="userSpaceOnUse" color-interpolation-filters="sRGB">
<feFlood flood-opacity="0" result="BackgroundImageFix"/>
<feColorMatrix in="SourceAlpha" type="matrix" values="0 0 0 0 0 0 0 0 0 0 0 0 0 0 0 0 0 0 127 0"/>
<feOffset dy="7"/>
<feGaussianBlur stdDeviation="3.5"/>
<feColorMatrix type="matrix" values="0 0 0 0 0 0 0 0 0 0 0 0 0 0 0 0 0 0 0.23 0"/>
<feBlend mode="normal" in2="BackgroundImageFix" result="effect1_dropShadow"/>
<feBlend mode="normal" in="SourceGraphic" in2="effect1_dropShadow" result="shape"/>
</filter>
</defs>
</svg>
